<svg width="24" height="24" viewBox="0 0 24 24" fill="none" xmlns="http://www.w3.org/2000/svg">
<path d="M16.75 5C13.022 5 10 8.022 10 11.75C10 15.478 13.022 18.5 16.75 18.5C20.478 18.5 23.5 15.478 23.5 11.75C23.5 8.022 20.478 5 16.75 5ZM16.75 15C14.955 15 13.5 13.545 13.5 11.75C13.5 9.955 14.955 8.5 16.75 8.5C18.545 8.5 20 9.955 20 11.75C20 13.545 18.545 15 16.75 15Z" fill="white"/>
<path d="M9.57 14.0255V14.024C8.98 14.626 8.159 15 7.25 15C5.455 15 4 13.545 4 11.75C4 9.955 5.455 8.5 7.25 8.5C8.165 8.5 8.9905 8.8795 9.581 9.488L11.456 6.476C10.302 5.5545 8.8415 5 7.25 5C3.522 5 0.5 8.022 0.5 11.75C0.5 15.478 3.522 18.5 7.25 18.5C8.832 18.5 10.2835 17.9515 11.4345 17.0405L9.57 14.0255Z" fill="white"/>
<path d="M4 11.75C4 10.8565 4.361 10.0475 4.9445 9.46001L2.517 6.94101C1.273 8.16501 0.5 9.86651 0.5 11.75C0.5 13.6245 1.265 15.32 2.499 16.543L4.966 14.061C4.37 13.472 4 12.6545 4 11.75Z" fill="#D4D4D4"/>
<path d="M19.0651 9.47049C19.6426 10.057 20.0001 10.8615 20.0001 11.75C20.0001 13.545 18.5451 15 16.7501 15C15.8371 15 15.0131 14.6225 14.4226 14.016L11.9231 16.4635C13.1491 17.7185 14.8571 18.5 16.7501 18.5C20.4781 18.5 23.5001 15.478 23.5001 11.75C23.5001 9.90799 22.7606 8.24049 21.5646 7.02249L19.0651 9.47049Z" fill="#D4D4D4"/>
</svg>
