<svg width="16" height="18" viewBox="0 0 16 18" fill="none" xmlns="http://www.w3.org/2000/svg">
<path d="M4.89648 17.8256C5.5201 17.8256 5.69634 17.5816 5.69634 17.2698C5.69634 16.958 5.69635 16.2801 5.68279 15.3176C2.44266 16.009 1.75125 13.7721 1.75125 13.7721C1.22253 12.457 0.449777 12.091 0.449777 12.091C-0.607671 11.386 0.531119 11.3996 0.531119 11.3996C1.69702 11.4809 2.32065 12.5791 2.32065 12.5791C3.36454 14.3415 5.04561 13.8263 5.7099 13.528C5.76413 12.9451 6.02171 12.3893 6.45554 11.9825C3.86615 11.6978 1.14119 10.7082 1.14119 6.31571C1.12763 5.17692 1.56145 4.06524 2.34776 3.23826C2.21219 2.95357 1.81904 1.78766 2.44266 0.201489C2.44266 0.201489 3.41877 -0.110322 5.65567 1.38095C7.56721 0.865784 9.57365 0.865784 11.4852 1.38095C13.695 -0.0967651 14.6847 0.201489 14.6847 0.201489C15.3083 1.7741 14.9151 2.94001 14.8067 3.23826C15.593 4.06524 16.0132 5.17692 15.9997 6.31571C15.9997 10.7217 13.2747 11.6843 10.6718 11.969C11.0785 12.3079 11.4581 13.0129 11.4581 14.0839C11.4581 15.6294 11.4445 16.8495 11.4445 17.2156C11.4445 17.5138 11.5801 17.7578 12.2444 17.7578L4.89648 17.8256Z" fill="black"/>
</svg>
