<svg width="16" height="18" viewBox="0 0 16 18" fill="none" xmlns="http://www.w3.org/2000/svg">
<path d="M4.89648 17.8257C5.5201 17.8257 5.69635 17.5817 5.69635 17.2698C5.69635 16.958 5.69635 16.2802 5.68279 15.3176C2.44266 16.009 1.75125 13.7721 1.75125 13.7721C1.22253 12.4571 0.449777 12.0911 0.449777 12.0911C-0.607671 11.3861 0.531119 11.3997 0.531119 11.3997C1.69702 11.481 2.32065 12.5791 2.32065 12.5791C3.36454 14.3415 5.04561 13.8264 5.7099 13.5281C5.76413 12.9452 6.02171 12.3893 6.45554 11.9826C3.86615 11.6979 1.14119 10.7082 1.14119 6.31577C1.12763 5.17698 1.56145 4.0653 2.34776 3.23832C2.21219 2.95363 1.81904 1.78772 2.44266 0.20155C2.44266 0.20155 3.41877 -0.110261 5.65567 1.38101C7.56721 0.865845 9.57365 0.865845 11.4852 1.38101C13.695 -0.096704 14.6847 0.20155 14.6847 0.20155C15.3083 1.77416 14.9151 2.94007 14.8067 3.23832C15.593 4.0653 16.0132 5.17698 15.9997 6.31577C15.9997 10.7218 13.2747 11.6843 10.6718 11.969C11.0785 12.308 11.4581 13.0129 11.4581 14.0839C11.4581 15.6294 11.4445 16.8496 11.4445 17.2156C11.4445 17.5139 11.5801 17.7579 12.2444 17.7579L4.89648 17.8257Z" fill="black"/>
</svg>
