<svg width="24" height="24" viewBox="0 0 24 24" fill="none" xmlns="http://www.w3.org/2000/svg">
<path d="M8.89648 20.6512C9.5201 20.6512 9.69635 20.4072 9.69635 20.0954C9.69635 19.7836 9.69635 19.1057 9.68279 18.1432C6.44266 18.8346 5.75125 16.5977 5.75125 16.5977C5.22253 15.2827 4.44978 14.9166 4.44978 14.9166C3.39233 14.2117 4.53112 14.2252 4.53112 14.2252C5.69702 14.3066 6.32065 15.4047 6.32065 15.4047C7.36454 17.1671 9.04561 16.6519 9.7099 16.3537C9.76413 15.7707 10.0217 15.2149 10.4555 14.8082C7.86615 14.5235 5.14119 13.5338 5.14119 9.14133C5.12763 8.00254 5.56145 6.89086 6.34776 6.06389C6.21219 5.77919 5.81904 4.61328 6.44266 3.02711C6.44266 3.02711 7.41877 2.7153 9.65567 4.20657C11.5672 3.69141 13.5737 3.69141 15.4852 4.20657C17.695 2.72886 18.6847 3.02711 18.6847 3.02711C19.3083 4.59973 18.9151 5.76563 18.8067 6.06389C19.593 6.89086 20.0132 8.00254 19.9997 9.14133C19.9997 13.5474 17.2747 14.5099 14.6718 14.7946C15.0785 15.1335 15.4581 15.8385 15.4581 16.9095C15.4581 18.455 15.4445 19.6751 15.4445 20.0412C15.4445 20.3394 15.5801 20.5835 16.2444 20.5835L8.89648 20.6512Z" fill="white"/>
</svg>
