<svg width="25" height="42" viewBox="0 0 25 42" fill="none" xmlns="http://www.w3.org/2000/svg">
<path d="M24.5 1.59137C24.5 1.03909 24.0521 0.589241 23.5002 0.611773C19.005 0.795321 14.64 2.21374 10.8885 4.72037C6.85954 7.41246 3.71931 11.2388 1.86496 15.7156C0.0106155 20.1924 -0.474566 25.1185 0.470772 29.8711C1.35098 34.2962 3.43458 38.3857 6.48337 41.6941C6.85764 42.1002 7.49248 42.0989 7.883 41.7084L12.8704 36.721C13.261 36.3304 13.2582 35.6993 12.8938 35.2843C11.106 33.2487 9.88094 30.7736 9.3501 28.1049C8.75409 25.1085 9.05998 22.0027 10.2291 19.1802C11.3982 16.3577 13.3781 13.9452 15.9183 12.2479C18.1807 10.7362 20.7971 9.85227 23.5007 9.67701C24.0518 9.64129 24.5 9.19694 24.5 8.64466V1.59137Z" fill="#37C058"/>
</svg>
