<svg width="25" height="42" viewBox="0 0 25 42" fill="none" xmlns="http://www.w3.org/2000/svg">
<path opacity="0.3" d="M0.5 1.59137C0.5 1.03909 0.947955 0.589241 1.49978 0.611773C5.99497 0.795321 10.36 2.21374 14.1115 4.72037C18.1405 7.41246 21.2807 11.2388 23.135 15.7156C24.9894 20.1924 25.4746 25.1185 24.5292 29.8711C23.649 34.2962 21.5654 38.3857 18.5166 41.6941C18.1424 42.1002 17.5075 42.0989 17.117 41.7084L12.1296 36.721C11.7391 36.3304 11.7418 35.6993 12.1062 35.2843C13.894 33.2487 15.1191 30.7736 15.6499 28.1049C16.2459 25.1085 15.94 22.0027 14.7709 19.1802C13.6018 16.3577 11.6219 13.9452 9.08173 12.2479C6.81933 10.7362 4.20293 9.85227 1.49935 9.67701C0.948226 9.64129 0.5 9.19694 0.5 8.64466V1.59137Z" fill="#FA3532"/>
</svg>
